<?xml version="1.0" standalone="no"?>
<!DOCTYPE svg PUBLIC "-//W3C//DTD SVG 20010904//EN"
 "http://www.w3.org/TR/2001/REC-SVG-20010904/DTD/svg10.dtd">
<svg version="1.0" xmlns="http://www.w3.org/2000/svg"
 width="400.000000pt" height="400.000000pt" viewBox="0 0 400.000000 400.000000"
 preserveAspectRatio="xMidYMid meet">
<metadata>
Created by potrace 1.11, written by Peter Selinger 2001-2013
</metadata>
<g transform="translate(0.000000,400.000000) scale(0.100000,-0.100000)"
fill="#000000" stroke="none">
<path d="M1817 3944 c-1 -2 -25 -6 -52 -9 -344 -43 -658 -170 -943 -382 -97
-72 -300 -274 -374 -373 -206 -274 -315 -538 -383 -930 -14 -77 -13 -387 1
-495 28 -218 101 -453 198 -640 299 -576 826 -950 1481 -1050 90 -14 392 -13
500 1 563 74 1059 381 1378 854 157 231 278 560 314 852 14 113 8 414 -11 523
-9 55 -19 116 -22 135 -11 67 -94 304 -142 404 -290 607 -852 1011 -1527 1100
-84 12 -409 19 -418 10z"/>
</g>
</svg>
